HIERARCHY
ROOT Root
{
  OFFSET 7.84682 11.8871 -10.9721
  CHANNELS 6 Xposition Yposition Zposition Zrotation Xrotation Yrotation
  JOINT Spine
  {
    OFFSET 5.3114 0 0
    CHANNELS 3 Zrotation Xrotation Yrotation
    JOINT Spine1
    {
      OFFSET 2.79004 0 0
      CHANNELS 3 Zrotation Xrotation Yrotation
      JOINT Neck
      {
        OFFSET 1.43377 0 0
        CHANNELS 3 Zrotation Xrotation Yrotation
        JOINT Head
        {
          OFFSET 1.86043 0 0
          CHANNELS 3 Zrotation Xrotation Yrotation
          End Site
          {
            OFFSET 0 0 0
          }
        }
      }
      JOINT LeftArm
      {
        OFFSET 0.0387506 0 2.55754
        CHANNELS 3 Zrotation Xrotation Yrotation
        JOINT LeftForeArm
        {
          OFFSET 4.24845 0 0
          CHANNELS 3 Zrotation Xrotation Yrotation
          JOINT LeftHand
          {
            OFFSET 4.01008 0 0
            CHANNELS 3 Zrotation Xrotation Yrotation
            End Site
            {
              OFFSET 0 0 0
            }
          }
        }
      }
      JOINT RightArm
      {
        OFFSET 0.0387506 0 -2.55754
        CHANNELS 3 Zrotation Xrotation Yrotation
        JOINT RightForeArm
        {
          OFFSET -4.24845 0 0
          CHANNELS 3 Zrotation Xrotation Yrotation
          JOINT RightHand
          {
            OFFSET -4.01009 0 0
            CHANNELS 3 Zrotation Xrotation Yrotation
            End Site
            {
              OFFSET 0 0 0
            }
          }
        }
      }
    }
  }
  JOINT LeftUpLeg
  {
    OFFSET -1.23318 0 2.05692
    CHANNELS 3 Zrotation Xrotation Yrotation
    JOINT LeftLeg
    {
      OFFSET 5.46397 0 0
      CHANNELS 3 Zrotation Xrotation Yrotation
      JOINT LeftFoot
      {
        OFFSET 4.68898 0 0
        CHANNELS 3 Zrotation Xrotation Yrotation
        End Site
        {
          OFFSET 0 0 0
        }
      }
    }
  }
  JOINT RightUpLeg
  {
    OFFSET -1.24454 0 -2.05007
    CHANNELS 3 Zrotation Xrotation Yrotation
    JOINT RightLeg
    {
      OFFSET -5.46397 0 0
      CHANNELS 3 Zrotation Xrotation Yrotation
      JOINT RightFoot
      {
        OFFSET -4.68901 0 0
        CHANNELS 3 Zrotation Xrotation Yrotation
        End Site
        {
          OFFSET 0 0 0
        }
      }
    }
  }
}
MOTION
Frames:	8
Frame Time:	0.00833333
11.0039 8.67285 0.47654 93.8203 -9.66898 0.478483 26.0808 0.422082 4.35629 3.77693 -0.654847 2.30189 -19.567 -2.49551 -8.22631 34.0609 -2.34249 17.8129 0.44049 -60.951 -109.208 66.5584 16.3395 34.6683 -2.21047 -23.7906 173.989 134.678 -55.1741 -161.791 72.3391 19.5954 36.5806 -1.66115 -18.3234 174.182 -77.8738 7.29788 -158.255 -78.3112 0.132771 -2.3942 4.89845 -0.639371 175.945 80.7409 -3.21027 -173.973 -106.692 1.08688 -3.77568 -9.79551 -3.62341 175.774 
11.0013 8.67278 0.476807 93.8863 -9.65494 0.505504 26.0029 0.38627 4.33764 3.80722 -0.660484 2.2942 -19.5065 -2.52868 -8.17264 33.9382 -2.39294 17.849 -0.726005 -60.4919 -110.607 67.6252 16.924 35.0492 -2.74504 -28.6998 173.752 134.766 -55.1235 -161.753 72.4113 19.6372 36.6025 -1.6582 -18.2922 174.183 -77.9374 7.28899 -158.305 -78.3048 0.132159 -2.39448 4.89359 -0.632473 175.949 80.6416 -3.22248 -173.944 -106.699 1.0825 -3.77968 -9.60056 -3.32801 175.851 
10.9993 8.67276 0.476799 93.9348 -9.63335 0.532151 25.9445 0.363576 4.31902 3.82692 -0.663073 2.2886 -19.4496 -2.55884 -8.15081 33.8637 -2.43155 17.9234 -1.735 -60.0517 -111.83 68.739 17.5435 35.4277 -3.3342 -33.6147 173.447 134.868 -55.0502 -161.699 72.4884 19.682 36.6258 -1.65582 -18.2666 174.184 -77.9751 7.28178 -158.362 -78.2928 0.130667 -2.39483 4.88963 -0.630929 175.952 80.5726 -3.23562 -173.906 -106.711 1.07994 -3.78239 -9.48069 -3.13636 175.9 
10.9979 8.67277 0.476425 93.9579 -9.60148 0.560846 25.914 0.355472 4.29746 3.83257 -0.662265 2.28591 -19.3912 -2.58449 -8.175 33.8426 -2.45281 18.0585 -2.54249 -59.6489 -112.836 69.9208 18.2116 35.8109 -3.99811 -38.5493 173.056 134.986 -54.9433 -161.63 72.5703 19.7294 36.6504 -1.65409 -18.2473 174.185 -77.9727 7.27884 -158.432 -78.2719 0.127788 -2.39531 4.88763 -0.637405 175.954 80.5467 -3.2518 -173.852 -106.731 1.07983 -3.78326 -9.46679 -3.08681 175.91 
10.9968 8.67281 0.47581 93.9676 -9.5555 0.592405 25.8959 0.355937 4.27436 3.83016 -0.659259 2.2841 -19.326 -2.61079 -8.22695 33.8611 -2.46697 18.2384 -3.18316 -59.2727 -113.671 71.1844 18.9331 36.214 -4.7606 -43.4889 172.555 135.119 -54.8035 -161.547 72.6607 19.7818 36.6775 -1.65316 -18.2358 174.185 -77.9475 7.27804 -158.52 -78.2417 0.123668 -2.39592 4.88366 -0.645203 175.957 80.5439 -3.27179 -173.78 -106.758 1.08123 -3.78319 -9.50998 -3.11175 175.899 
10.996 8.67289 0.475068 93.973 -9.50458 0.620754 25.8829 0.366177 4.25535 3.82301 -0.653945 2.28286 -19.2694 -2.63722 -8.2885 33.9181 -2.47868 18.4245 -3.77064 -58.9088 -114.433 72.4687 19.6728 36.6145 -5.65641 -48.4087 171.911 135.261 -54.6544 -161.451 72.7572 19.8378 36.7064 -1.65275 -18.2293 174.185 -77.9186 7.2751 -158.611 -78.21 0.119335 -2.39653 4.87827 -0.653347 175.959 80.5499 -3.29012 -173.703 -106.788 1.08341 -3.78272 -9.57601 -3.17573 175.878 
10.9952 8.67303 0.474311 93.9829 -9.45789 0.639828 25.8679 0.387398 4.24606 3.81441 -0.646214 2.28189 -19.2365 -2.66328 -8.3415 34.0127 -2.49259 18.5787 -4.41168 -58.5399 -115.213 73.7153 20.3965 36.9883 -6.73659 -53.2835 171.072 135.408 -54.5198 -161.341 72.8576 19.8961 36.7364 -1.65253 -18.225 174.186 -77.9049 7.26577 -158.689 -78.1844 0.115818 -2.39703 4.87202 -0.660862 175.962 80.5503 -3.30139 -173.64 -106.814 1.08566 -3.7824 -9.63064 -3.24331 175.858 
10.9946 8.67325 0.47347 94.0007 -9.41381 0.645819 25.8493 0.422755 4.25281 3.80251 -0.635496 2.28303 -19.2421 -2.68795 -8.3879 34.1678 -2.50701 18.6952 -5.1475 -58.1555 -116.049 74.9279 21.1085 37.331 -8.09395 -58.1413 169.95 135.575 -54.4039 -161.203 72.964 19.958 36.768 -1.65303 -18.2276 174.186 -77.9135 7.24566 -158.753 -78.1654 0.113186 -2.39741 4.86248 -0.663533 175.965 80.5426 -3.30305 -173.591 -106.836 1.08816 -3.7823 -9.67272 -3.32434 175.838 
